# xmcd
# 
# Track frame offsets:
#     150
#     25372
#     41522
#     56637
#     68045
#     83252
#     101415
#     119960
#     143772
#     162880
#     181262
# 
# Disc length: 2729
# 
# Revision: 4
# Processed by: cddbd v1.5.2PL0 Copyright (c) Steve Scherf et al.
# Submitted via: fre:ac v1.0.17
# 
DISCID=8d0aa70b
DTITLE=王頌恩 - 一個人的漫遊
DYEAR=1997
DGENRE=Instrumental
TTITLE0=一個人的漫遊
TTITLE1=妄想
TTITLE2=兩個世界
TTITLE3=想念‧深入地心
TTITLE4=失重狀態
TTITLE5=遠離的想法
TTITLE6=如何讓你遇見我
TTITLE7=赤道直下型憂鬱
TTITLE8=宛若你的氣息
TTITLE9=海洋色的眼淚
TTITLE10=離開之前
EXTD=YEAR: 1997
EXTT0=
EXTT1=
EXTT2=
EXTT3=
EXTT4=
EXTT5=
EXTT6=
EXTT7=
EXTT8=
EXTT9=
EXTT10=
PLAYORDER=
